<svg id="Layer_1" data-name="Layer 1" xmlns="http://www.w3.org/2000/svg" viewBox="0 0 370.5 229.65"><path d="M355.12,446q-5.33,19.15-10.64,38.33-7.43,26.93-14.81,53.87c-1.23,4.47-3.72,7.27-8.77,7.26q-51-.08-102-.05a5.85,5.85,0,0,1-1.17-.31c30.81-7.72,51.16-26.32,56.38-57.72,5.61-33.72-6.47-60.81-36.31-79.68,11.11-19.33,10.74-39.07.16-58.34s-27.85-28.86-48.63-33.5c21.56,0,43.12-.07,64.67,0,6.95,0,9,1.92,10.73,8.72q18,72.66,36.06,145.34a14,14,0,0,0,2.53,5.7c1.5-5.33,3.08-10.64,4.5-16C316,429,324.22,398.26,332.22,367.5a19.6,19.6,0,0,0,0-9.2c-2.61-10.66-5.69-21.21-8.54-31.82-2.12-7.85-.07-10.57,8-10.62q13.5-.06,27,0c8.36.05,10.13,1.45,12.12,9.46l36,145.34a11.39,11.39,0,0,0,2.31,4.95c.6-2.08,1.28-4.14,1.79-6.23q17.64-71.25,35.24-142.5c2.49-10.05,3.9-11.08,14.43-11s21.33,0,32,.06c7.83.07,9.86,2.81,7.78,10.4q-20.85,76.07-41.76,152.13-8,29-16,58c-2,7.42-3.93,9-11.49,9q-19.24,0-38.5,0c-7.29,0-9.36-1.66-11.27-8.64Q369.73,494,358,451.18c-.47-1.71-1.13-3.37-1.69-5.06Z" transform="translate(-130.68 -315.84)"/><path d="M131,495.78V444.67c1.87-.13,3.62-.35,5.38-.35q29.19,0,58.39.05a43.3,43.3,0,0,1,8.45.55c8.84,1.79,15.25,6.65,17.49,15.69,2.31,9.31,2.36,18.51-3.63,26.72-4.46,6.12-11.08,8.63-18.2,8.74-21.93.33-43.87.16-65.8.18A13,13,0,0,1,131,495.78Z" transform="translate(-130.68 -315.84)"/><path d="M158.49,397.48c-7.82,0-15.65-.13-23.47.06-3.26.08-4.4-1.05-4.33-4.3.16-7.82.2-15.65,0-23.47-.1-3.63,1.44-4.48,4.74-4.44,13.16.13,26.31,0,39.46.09,7.23,0,13.08,2.73,16,9.7,3,7.17,2.12,14.1-2.88,20.09-1.14,1.37-3.65,2.14-5.57,2.19-8,.24-16,.1-24,.1Z" transform="translate(-130.68 -315.84)"/></svg>